<?xml version="1.0" encoding="utf-8"?>
<!-- Generator: Adobe Illustrator 25.2.1, SVG Export Plug-In . SVG Version: 6.00 Build 0)  -->
<svg version="1.1" id="Camada_1" xmlns="http://www.w3.org/2000/svg" xmlns:xlink="http://www.w3.org/1999/xlink" x="0px" y="0px"
	 viewBox="0 0 110 31" style="enable-background:new 0 0 110 31;" xml:space="preserve">
<style type="text/css">
	.st0{fill-rule:evenodd;clip-rule:evenodd;fill:#2E3F51;}
	.st1{fill:#AACA40;}
	.st2{fill-rule:evenodd;clip-rule:evenodd;fill:url(#SVGID_1_);}
</style>
<path class="st0" d="M43.42,17.78v-2.5h3.36c0.93,0,1.46,0.47,1.46,1.25c0,0.82-0.53,1.25-1.46,1.25L43.42,17.78L43.42,17.78z
	 M46.63,10.34c0.82,0,1.23,0.36,1.23,1.08s-0.42,1.08-1.23,1.08h-3.21v-2.16H46.63z M58.95,11.16c-1.04,0-1.84,0.44-2.39,1.33
	l-0.23-1.12h-3.03v9.37h3.45v-4.55c0-1.38,0.68-2.07,1.8-2.07c0.47,0,0.93,0.15,1.4,0.46l1.4-2.43
	C60.71,11.48,59.91,11.16,58.95,11.16z M77.27,20.74v-9.37h-3.45v9.37H77.27z M85.3,11.16c-1.23,0-2.22,0.44-2.96,1.31l-0.19-1.1h-3
	v9.37h3.45V15.8c0-1.08,0.64-1.8,1.58-1.8c0.85,0,1.37,0.59,1.37,1.56v5.18H89v-5.37C89,12.71,87.57,11.16,85.3,11.16z M64.63,19.04
	c1.58-0.91,3.1-1.79,4.68-2.7c-1.58-0.91-3.1-1.79-4.68-2.7C64.63,15.47,64.63,17.2,64.63,19.04z M65.78,11.18
	c1.18,0,2.26,0.51,3.05,1.34l0.1-1.15h3v9.37h-3l-0.08-1.16c-0.8,0.84-1.88,1.36-3.07,1.36c-2.45,0-4.43-2.18-4.43-4.88
	C61.35,13.36,63.33,11.18,65.78,11.18z M49.68,13.77c1.12-0.55,1.67-1.48,1.67-2.77c0-2.18-1.84-3.55-4.74-3.55h-6.7v13.28h6.7
	c3.19,0,5.14-1.42,5.14-3.76C51.75,15.54,50.97,14.36,49.68,13.77z"/>
<path class="st1" d="M92.2,14.06c-0.03-0.62,0.62-1.27,1.89-1.27c1.14,0,1.94,0.51,1.91,1.27c-0.03,0.78-0.86,1.26-1.9,1.26
	C93.11,15.32,92.22,14.85,92.2,14.06 M90.22,17.82c-0.04,2.11,1.91,2.91,3.87,2.92c2.01,0.01,3.93-0.82,3.89-2.92
	c-0.01-0.69-0.44-1.63-1.36-2.01c0.81-0.33,1.16-1.08,1.16-1.7c0-1.8-1.75-2.74-3.69-2.74c-1.95,0-3.62,0.93-3.62,2.74
	c0,0.69,0.36,1.36,1.13,1.77C90.67,16.26,90.23,17.12,90.22,17.82z M94.1,16.56c1.13,0,2.1,0.4,2.11,1.29
	c0.01,0.71-0.73,1.35-2.11,1.35c-1.37,0-2.12-0.66-2.11-1.35C92,16.96,93.04,16.56,94.1,16.56z"/>
<path class="st1" d="M102.08,19.15c-1.11,0-2.06-0.48-2.07-1.47c-0.01-1,0.95-1.52,2.08-1.52s2.03,0.53,2.03,1.52
	C104.12,18.68,103.15,19.15,102.08,19.15 M100.01,14.35c0-0.98,1.03-1.53,2.04-1.52c0.96,0,1.97,0.4,1.97,1.2h1.7
	c0-1.89-1.74-2.66-3.69-2.66c-1.85,0-3.7,0.94-3.7,2.94v3.35c0,2.02,1.91,3.01,3.75,3.01c1.81,0,3.73-0.99,3.73-2.98
	c0-2.24-1.9-2.99-3.72-2.99c-0.71,0-1.68,0.33-2.08,0.95v-1.35L100.01,14.35L100.01,14.35z"/>
<linearGradient id="SVGID_1_" gradientUnits="userSpaceOnUse" x1="3.1481" y1="16.4654" x2="38.2783" y2="16.4654" gradientTransform="matrix(1 0 0 -1 0 32)">
	<stop  offset="0" style="stop-color:#50A8CD"/>
	<stop  offset="1" style="stop-color:#195C8D"/>
</linearGradient>
<path class="st2" d="M22.67,22.08l3.97,3.02l-0.5-1.53c2.32-1.13,7.14-3.17,8.9-5.45c1.37-1.77,1.52-3.97-0.39-5.4
	c-2.86-2.13-8.77,0.71-12.31,0.6c-0.52,0.85-1.38,1.36-2.39,1.17c-1.22-0.22-2.27-1.42-1.97-2.97c0.25-1.32,1.25-1.94,2.29-1.85
	c2.09,0.19,1.91,2.07,3.19,2.45c1.89,0.56,4.43-0.96,6.48-1.29c2.14-0.35,4.11-0.1,6.41,1.74c-0.39-1.44-1.08-2.42-2.32-3.27
	c-1.33-4.01-4.33-5.1-8.15-4.52c-2.47,0.38-2.09,2.33-2.81,3.36c-1.07,1.54-4.16-0.61-2.95-2.32c0.81-1.15,2.53-0.9,5.43-2.18
	C23.2,1.89,20.97,1.5,18.9,4.3C16.63,2.42,13.02,2.94,12,5.88c-0.35,1.01-0.27,2.14,0.46,3.05c1.11,0.07,3.31,0.02,3.68,1.29
	c0.25,0.84-0.38,1.91-1.17,2.07c-2.09,0.41-4.03-4.24-4.63-5.8c-9.92,2.46-3.99,15.42,3.72,11.08c-0.44-1.26-0.75-1.87-0.62-2.55
	c0.2-1.09,1.16-1.68,1.99-1.54c1.7,0.3,1.63,2.63-0.06,3.3c0.46,2.62,3.32,3.72,5.62,3.48c4.62-0.48,5.87-4.7,8.49-5.18
	c2.19-0.4,2.91,2.4,1.15,3.56c-0.76,0.5-2.13,0.37-2.76-1.07C26.36,19.18,24.59,20.7,22.67,22.08 M20.11,22.3l10.84,8.3l-2.62-6.09
	c4.4-2.14,9.51-3.99,9.92-9.67c0.18-2.52-0.72-5.09-2.71-6.67c0.19-2.5-5.25-6.42-8.44-5.39c-1.46-2.87-6.58-2.94-8.48-0.87
	c-2.86-1.9-7.86,0.37-8.02,2.78c-13.74,2.46-6.12,19.7,3.85,14.7C16.03,21.21,17.04,22.02,20.11,22.3z"/>
</svg>
